<svg xmlns="http://www.w3.org/2000/svg" viewBox="0 0 160 160"><defs><style>.cls-1{fill:#a4c7ae;}.cls-2{fill:#fff;}.cls-3{fill:none;}</style></defs><g id="레이어_2" data-name="레이어 2"><g id="레이어_7" data-name="레이어 7"><rect class="cls-1" width="160" height="160"/><path class="cls-2" d="M32.52,64.81l4.2,4.2-1.33,1.33a.93.93,0,0,1-1.3,0l-2.78-2.78a1.06,1.06,0,0,1-.32-.84,1,1,0,0,1,.32-.7Z"/><path class="cls-2" d="M133.45,80.59a50.94,50.94,0,0,1-87,36L54,109A40.25,40.25,0,1,0,69.49,42.3L64.29,33a51,51,0,0,1,69.16,47.57Z"/><path class="cls-2" d="M55,37.75c-.07.06-3.63,1.29-3.66,1.4C36.9,27.79,18.93,47.69,31.73,60.94l5,5a4.53,4.53,0,0,0,6.41,0C46.3,62.73,59.8,49,63.18,45.9Zm-7.32,13.5c-2.26,11.22-18.48,4.7-12.38-5C39.26,40.5,48.86,44.47,47.71,51.25Z"/><rect class="cls-2" x="37.07" y="98.98" width="10.31" height="10.31" transform="translate(-61.27 60.36) rotate(-45)"/><line class="cls-3" x1="70" y1="45" x2="68.49" y2="42.3"/></g></g></svg>